<svg version="1.2" xmlns="http://www.w3.org/2000/svg" viewBox="0 0 500 500" width="499" height="499">
	<title>G;</title>
	<style>
		.s0 { fill: #000000 } 
		.s1 { fill: #636363 } 
		.s2 { fill: #8c52ff } 
		.s3 { fill: #ffffff } 
		.s4 { fill: #09080c } 
	</style>
	<g id="Background">
		<path id="Path 0" class="s0" d="m227.5 10.5c-7.7 0.7-16.7 1.9-20 2.5-3.3 0.7-6.4 1.7-7 2.1-0.5 0.5-2.2 0.9-3.7 0.9-1.5 0-8.5 1.9-15.6 4.1-7 2.3-17.2 6.2-22.7 8.8-5.5 2.5-13.6 6.6-18 9-4.4 2.4-11.2 6.5-15 9.1-3.8 2.6-11.3 8-16.5 12.1-5.2 4-14 11.8-19.5 17.4-5.5 5.6-12.9 13.7-16.4 18-3.6 4.4-10 13.4-14.3 20-4.4 6.6-10.6 17.4-13.8 24-3.2 6.6-7.7 17.4-10 24-2.3 6.6-4.8 14.7-5.5 18-0.8 3.3-2.1 8.7-3 12-0.8 3.3-2.2 13.7-3.1 23-1.1 11.3-1.4 22.1-1.1 32 0.3 8.3 1.3 20.4 2.2 27 0.9 6.6 2.3 15.3 3.1 19.3 0.8 3.9 1.8 7.4 2.4 7.7 0.5 0.3 1 1.6 1 3 0 1.4 1.6 7.1 3.5 12.8 2 5.6 6.9 16.9 10.9 25.2 4.1 8.3 10.2 19.3 13.6 24.5 3.4 5.2 9.7 13.8 13.8 19 4.2 5.2 11.9 13.7 17.2 18.9 5.2 5.2 13.1 12.3 17.5 15.9 4.4 3.5 12.3 9.3 17.5 12.7 5.2 3.5 14.7 9 21 12.3 6.3 3.4 15.4 7.7 20.3 9.6 4.8 2 9.3 3.4 9.9 3.2 0.7-0.2 2 0.3 2.8 1 0.8 0.7 6.7 2.6 13 4.3 6.3 1.6 16.4 3.7 22.5 4.6 6.1 0.9 15.9 2.1 22 2.6 6.1 0.6 17.3 0.8 25 0.5 7.7-0.2 17.1-0.9 21-1.5 3.9-0.5 9.9-1.4 13.5-1.9 3.6-0.6 8.5-1.5 11-2 2.5-0.6 9.4-2.6 15.5-4.5 6.1-1.9 15.1-5.1 20-7.1 4.9-2.1 13.3-6 18.5-8.8 5.2-2.8 13.3-7.5 18-10.6 4.7-3 11.9-8 16-11.2 4.1-3.1 12.7-10.6 19-16.7 6.3-6.1 15.3-15.8 20-21.7 4.7-5.8 11.5-15.5 15.2-21.4 3.8-5.9 9.2-15.6 12.2-21.7 3-6.1 7-15.3 8.9-20.5 2-5.2 4.9-14.4 6.6-20.5 1.7-6.1 3.6-14.6 4.2-19 0.6-4.4 1.5-11.4 1.9-15.5 0.5-4.1 0.9-15.9 0.9-26.3 0.1-10.4-0.6-24.7-1.4-32.2-0.8-7.4-1.9-14.3-2.4-15.2-0.5-1-1.7-5.6-2.6-10.3-1-4.7-3.5-13.7-5.7-20-2.2-6.3-6.6-16.9-9.8-23.5-3.2-6.6-8.4-16-11.5-21-3.1-5-8.8-13.3-12.8-18.5-3.9-5.2-13.2-15.6-20.6-23.1-7.5-7.5-17.2-16.3-21.6-19.6-4.4-3.3-11.4-8.2-15.5-11-4.1-2.8-12.7-7.8-19-11.2-6.3-3.3-16-7.8-21.5-10-5.5-2.1-14.3-5.2-19.5-6.7-5.2-1.5-12.4-3.3-16-4-3.6-0.7-8.7-1.7-11.5-2.3-2.7-0.6-11.1-1.5-18.5-2.1-7.4-0.5-17.8-0.9-23-0.9-5.2 0.1-15.8 0.7-23.5 1.4z"/>
		<path id="Path 1" class="s1" d="m484.3 240.5c0 4.4 0.2 6 0.4 3.5 0.2-2.5 0.2-6.1 0-8-0.2-1.9-0.4 0.1-0.4 4.5z"/>
		<path id="Path 2" class="s2" d="m240.5 194.4c-3.3 0.7-9.6 3-14 5-4.4 2-11.3 6.3-15.4 9.4-4 3.1-9.4 8.4-11.8 11.7-2.5 3.3-6.4 9.2-8.6 13-2.3 3.8-5.8 11.3-7.8 16.5-2.1 5.2-4.8 14.2-6 20-1.6 7.8-2.2 14.3-2.3 25 0 11.4 0.3 15.8 1.8 20.5 1 3.3 2.8 8 4.1 10.5 1.3 2.5 3.1 5.3 4.1 6.2 1.1 0.9 3.9 2.4 6.4 3.3 2.6 0.9 7.7 1.5 12.3 1.5 5.1 0 9.4-0.6 12.9-2 3.8-1.4 7-3.7 11.4-8.2 3.3-3.5 7.9-9 10.1-12.3 2.2-3.3 8-13 12.9-21.5 4.9-8.5 12.3-21.9 16.4-29.7 4.1-7.9 7.8-14.3 8.3-14.3 0.4 0 0.7 1.8 0.7 4 0 2.2-0.9 12.9-2 23.7-1.2 10.9-2.8 25-3.6 31.3-0.8 6.3-2.6 16.9-3.9 23.5-1.4 6.6-2.9 13.6-3.5 15.5-0.5 1.9-1.3 4.1-1.8 4.8-0.4 0.8-5.6 2.1-12.7 3.2-6.6 1-15.8 2.8-20.5 4-4.7 1.2-12.1 3.9-16.5 6-4.4 2.2-10.7 6.1-14 8.8-3.3 2.6-7.7 7-9.7 9.7-2.2 2.9-4.2 7.1-4.9 10-0.8 3.8-0.8 6.1 0.1 9.5 0.8 3 2.6 5.9 5.3 8.6 2.5 2.4 6.4 4.8 9.7 6 4.3 1.5 8.2 1.9 18 1.9 10.3 0 13.8-0.4 20-2.3 4.1-1.3 10.4-3.9 14-5.9 3.6-1.9 9.2-5.7 12.5-8.4 3.3-2.6 8.7-7.9 11.9-11.6 3.2-3.7 8-9.9 10.6-13.8 2.5-3.9 6-9.5 7.7-12.5 1.7-3 4-6.3 5-7.2 1-0.9 9.2-4.2 18.3-7.3 9.1-3.1 18.3-6.6 20.5-7.8 3.1-1.7 4.1-2.9 4.3-5.2 0.2-1.9-0.2-3.5-1.2-4.3-1.3-1-2.5-0.7-6.9 1.4-2.8 1.5-10.6 4.4-17.2 6.6-6.6 2.1-12.1 3.7-12.3 3.6-0.2-0.2 1.3-6.4 3.2-13.8 2-7.4 4.2-16.6 5-20.5 0.8-3.9 2.2-12.9 3.2-20 1.5-10.4 1.8-19.4 1.8-44.5-0.1-25.5-0.4-32.9-1.7-39-0.9-4.1-2.5-8.6-3.6-10-1.8-2.4-2.1-2.5-13.7-2.3-11.7 0.2-11.9 0.3-14.1 3-1.5 2-2.7 2.6-4 2.1-1-0.4-4.9-1.9-8.8-3.3-5-2-9.4-2.8-15.5-3.1-5-0.2-11 0.2-14.5 1z"/>
		<path id="Path 3" class="s3" d="m96.5 175.3l-60 60.2-0.5 10 120.5 120.5c9.1 0 10.1-0.4 13.1-3.5 2.6-2.7 3.4-4.3 3.4-7.3 0-2-0.8-4.8-1.8-6.2-0.9-1.4-25.5-26.2-54.5-55-29-28.9-52.7-53-52.7-53.5 0-0.6 24.4-25.4 54.3-55.3l54.2-54.2c0-9.5-0.4-10.5-3.2-13.1-2.7-2.3-4.2-2.9-8-2.9h-4.8zm243-59.1c-1.1 0.6-2.8 2.1-3.7 3.2-1 1.2-1.7 3.8-1.8 5.9 0 2.1 0.7 5 1.5 6.5 0.7 1.5 25.3 26.6 54.4 55.7l53.1 53-109 109c0.1 8.3 0.7 10.8 1.8 12.2 0.9 1.1 2.7 2.6 4 3.2 1.2 0.6 3.6 1.1 5.2 1.1 1.7 0 4-0.5 5.3-1.1 1.2-0.6 28.2-27 60-58.7 31.8-31.7 58.5-58.9 59.3-60.4 0.8-1.5 1.4-3.9 1.4-5.3 0-1.3-0.5-3.5-1.1-4.7-0.6-1.2-27-28.3-58.7-60.1-31.7-31.8-58.9-58.4-60.4-59.2-1.5-0.8-4.2-1.4-6-1.4-1.8 0-4.2 0.5-5.3 1.1z"/>
		<path id="Path 4" class="s4" d="m273.1 251.5c-0.6 1.4-1.1 2.7-1.1 3 0 0.3 0.9 0.5 2 0.5 1.6 0 2-0.7 2-3 0-1.7-0.4-3-0.9-3-0.5 0-1.4 1.1-2 2.5z"/>
		<path id="Path 5" class="s0" d="m245 205.4c-1.9 0.7-5.5 2.6-8 4.1-2.5 1.6-6.7 5.1-9.4 7.9-3.6 3.7-6.7 8.9-11.7 19.1-3.7 7.7-8 18.1-9.4 23-1.4 4.9-3 13.1-3.6 18-0.6 4.9-0.9 13.7-0.6 19.5 0.4 5.8 1.1 13 1.8 16 0.6 3 1.8 6.7 2.5 8.2 0.8 1.6 2.2 2.8 3.1 2.8 1 0 2.9-0.8 4.3-1.7 1.3-1 5.3-6.3 8.9-11.8 3.5-5.5 10.1-16.1 14.6-23.5 4.5-7.4 11.9-20.3 16.5-28.5 4.5-8.3 11.4-21.3 15.2-29l7-14c-3-3.9-6.3-6.3-9.3-7.9-4-2.2-7-3-11.9-3.3-3.8-0.1-8 0.3-10 1.1zm-4.5 160.6c-4.9 1.1-12.2 3.2-16 4.7-3.8 1.5-9.5 4.6-12.5 6.9-3 2.3-6.7 5.9-8.2 8-1.5 2.2-3 5.5-3.3 7.4-0.5 2.5-0.1 4.8 1.4 8.3 1.4 3.2 3.1 5.2 5.4 6.3 2.2 1.2 4.8 1.5 8.7 1.2 3-0.3 7.7-1.6 10.5-2.9 2.7-1.3 6.9-4.4 9.4-6.9 2.4-2.5 6.1-7 8.1-10 2.1-3 5.6-9 7.9-13.3 2.2-4.2 4.1-8.6 4.1-9.7 0-1.6-0.6-2-3.2-1.9-1.8 0-7.4 0.9-12.3 1.9z"/>
	</g>
</svg>